<svg id="visual" viewBox="0 0 900 600" width="900" height="600" xmlns="http://www.w3.org/2000/svg" xmlns:xlink="http://www.w3.org/1999/xlink" version="1.1"><rect x="0" y="0" width="900" height="600" fill="#f79748"></rect><path d="M0 334L18.8 350.3C37.7 366.7 75.3 399.3 112.8 422.3C150.3 445.3 187.7 458.7 225.2 439.7C262.7 420.7 300.3 369.3 337.8 357.7C375.3 346 412.7 374 450.2 398C487.7 422 525.3 442 562.8 429.7C600.3 417.3 637.7 372.7 675.2 368.8C712.7 365 750.3 402 787.8 424.7C825.3 447.3 862.7 455.7 881.3 459.8L900 464L900 601L881.3 601C862.7 601 825.3 601 787.8 601C750.3 601 712.7 601 675.2 601C637.7 601 600.3 601 562.8 601C525.3 601 487.7 601 450.2 601C412.7 601 375.3 601 337.8 601C300.3 601 262.7 601 225.2 601C187.7 601 150.3 601 112.8 601C75.3 601 37.7 601 18.8 601L0 601Z" fill="#F7770F" stroke-linecap="round" stroke-linejoin="miter"></path></svg>